<?xml version="1.0" encoding="UTF-8"?>
<!DOCTYPE svg  PUBLIC '-//W3C//DTD SVG 1.1//EN'  'http://www.w3.org/Graphics/SVG/1.1/DTD/svg11.dtd'>
<svg width="154.49px" height="160.49px" enable-background="new 0 0 154.493 160.492" version="1.1" viewBox="0 0 154.493 160.492" xml:space="preserve" xmlns="http://www.w3.org/2000/svg">
<path d="m80.565 30.171c-7.409-8.175-16.634-12.262-27.678-12.262-11.046 0-20.187 3.543-27.425 10.627-7.239 7.085-10.858 15.94-10.858 26.567 0 10.628 3.55 19.416 10.654 26.365 7.101 6.948 16.04 10.425 26.813 10.425 10.772 0 19.932-4.191 27.475-12.569" fill="none" stroke="#000" stroke-miterlimit="10" stroke-width="20"/>
<path d="m78.347 80.493c4.761-4.486 12.682-9.413 23.184-10.065 17.777-1.106 38.509 11.79 39.947 34.948 1.241 19.945-13.827 38.715-34.896 40.021-24.843 1.546-39.057-18.846-40.06-34.987-0.946-15.216 7.063-25.431 11.825-29.917z" fill="none" stroke="#000" stroke-miterlimit="10" stroke-width="20"/>
</svg>
